
<svg width="1100" height="850" xmlns="http://www.w3.org/2000/svg">
  <!-- RiverMeadow Migration Diagram (ID: diagram1) -->
  <style>
    text { font-family: Arial, sans-serif; }
    .title { font-size: 24px; font-weight: bold; }
    .subtitle { font-size: 16px; fill: #666; }
    .node { fill: #dae8fc; stroke: #6c8ebf; stroke-width: 2; }
    .edge { stroke: #82b366; stroke-width: 2; marker-end: url(#arrowhead); }
    .node-label { font-size: 14px; fill: #333; }
    .footer { font-size: 12px; fill: #999; }
  </style>
  
  <!-- Background -->
  <rect width="100%" height="100%" fill="#ffffff" />
  
  <!-- Title -->
  <text x="550" y="40" class="title" text-anchor="middle">OS Migration Diagram</text>
  <text x="550" y="70" class="subtitle" text-anchor="middle">RiverMeadow Migration Diagram</text>
  
  <!-- Definitions -->
  <defs>
    <marker id="arrowhead" markerWidth="10" markerHeight="7" refX="10" refY="3.5" orient="auto">
      <polygon points="0 0, 10 3.5, 0 7" fill="#82b366" />
    </marker>
  </defs>
  
  <!-- Diagram content -->
  <g transform="translate(50, 100)">

    <rect id="node-2" x="28" y="140" width="112" height="70" 
      rx="5" ry="5" fill="#d5e8d4" stroke="#82b366" stroke-width="2" />
    <text x="84" y="180" 
      class="node-label" text-anchor="middle">Source OS Environment</text>

    <rect id="node-3" x="420" y="140" width="112" height="70" 
      rx="5" ry="5" fill="#d5e8d4" stroke="#82b366" stroke-width="2" />
    <text x="476" y="180" 
      class="node-label" text-anchor="middle">Target OS Environment</text>

    <rect id="node-4" x="224" y="140" width="112" height="70" 
      rx="5" ry="5" fill="#dae8fc" stroke="#6c8ebf" stroke-width="2" />
    <text x="280" y="180" 
      class="node-label" text-anchor="middle">RiverMeadow Migration Platform</text>

    <rect id="node-5" x="224" y="98" width="84" height="28" 
      rx="5" ry="5" fill="#ffe6cc" stroke="#d79b00" stroke-width="2" />
    <text x="266" y="117" 
      class="node-label" text-anchor="middle">Data Transfer</text>

    <rect id="node-6" x="224" y="224" width="84" height="28" 
      rx="5" ry="5" fill="#ffe6cc" stroke="#d79b00" stroke-width="2" />
    <text x="266" y="243" 
      class="node-label" text-anchor="middle">Configuration</text>

    <rect id="node-7" x="224" y="182" width="84" height="28" 
      rx="5" ry="5" fill="#ffe6cc" stroke="#d79b00" stroke-width="2" />
    <text x="266" y="201" 
      class="node-label" text-anchor="middle">Application Migration</text>

    <rect id="node-8" x="28" y="224" width="112" height="28" 
      rx="5" ry="5" fill="#fff2cc" stroke="#d6b656" stroke-width="2" />
    <text x="84" y="243" 
      class="node-label" text-anchor="middle">Pre-Migration Validation</text>

    <rect id="node-9" x="420" y="224" width="112" height="28" 
      rx="5" ry="5" fill="#fff2cc" stroke="#d6b656" stroke-width="2" />
    <text x="476" y="243" 
      class="node-label" text-anchor="middle">Post-Migration Validation</text>

    <line x1="84" y1="175" x2="280" y2="175" 
      stroke="#d79b00" stroke-width="2" marker-end="url(#arrowhead)" />

    <line x1="280" y1="175" x2="476" y2="175" 
      stroke="#d79b00" stroke-width="2" marker-end="url(#arrowhead)" />

    <line x1="84" y1="238" x2="84" y2="175" 
      stroke="#d6b656" stroke-width="2" marker-end="url(#arrowhead)" />

    <line x1="476" y1="238" x2="476" y2="175" 
      stroke="#d6b656" stroke-width="2" marker-end="url(#arrowhead)" />
  </g>
  
  <!-- Footer -->
  <text x="550" y="830" class="footer" text-anchor="middle">
    Generated: 2025-05-07T16:58:51.783Z
  </text>
</svg>