
<svg width="1100" height="850" xmlns="http://www.w3.org/2000/svg">
  <!-- RiverMeadow Migration Diagram (ID: 7Tt0f7V1IDxv1nZrWyus) -->
  <style>
    text { font-family: Arial, sans-serif; }
    .title { font-size: 24px; font-weight: bold; }
    .subtitle { font-size: 16px; fill: #666; }
    .node { fill: #dae8fc; stroke: #6c8ebf; stroke-width: 2; }
    .edge { stroke: #82b366; stroke-width: 2; marker-end: url(#arrowhead); }
    .node-label { font-size: 14px; fill: #333; }
    .footer { font-size: 12px; fill: #999; }
  </style>
  
  <!-- Background -->
  <rect width="100%" height="100%" fill="#ffffff" />
  
  <!-- Title -->
  <text x="550" y="40" class="title" text-anchor="middle">VM Based Migration</text>
  <text x="550" y="70" class="subtitle" text-anchor="middle">RiverMeadow Migration Diagram</text>
  
  <!-- Definitions -->
  <defs>
    <marker id="arrowhead" markerWidth="10" markerHeight="7" refX="10" refY="3.5" orient="auto">
      <polygon points="0 0, 10 3.5, 0 7" fill="#82b366" />
    </marker>
  </defs>
  
  <!-- Diagram content -->
  <g transform="translate(50, 100)">

    <rect id="node-2" x="56" y="196" width="84" height="42" 
      rx="5" ry="5" fill="#d5e8d4" stroke="#82b366" stroke-width="2" />
    <text x="98" y="222" 
      class="node-label" text-anchor="middle">Source OS</text>

    <rect id="node-3" x="420" y="196" width="84" height="42" 
      rx="5" ry="5" fill="#d5e8d4" stroke="#82b366" stroke-width="2" />
    <text x="462" y="222" 
      class="node-label" text-anchor="middle">Target OS</text>

    <rect id="node-4" x="224" y="154" width="125.99999999999999" height="42" 
      rx="5" ry="5" fill="#dae8fc" stroke="#6c8ebf" stroke-width="2" />
    <text x="287" y="180" 
      class="node-label" text-anchor="middle">RiverMeadow Migration Platform</text>

    <rect id="node-5" x="224" y="224" width="125.99999999999999" height="42" 
      rx="5" ry="5" fill="#ffe6cc" stroke="#d79b00" stroke-width="2" />
    <text x="287" y="250" 
      class="node-label" text-anchor="middle">Data Transfer</text>

    <rect id="node-6" x="224" y="294" width="125.99999999999999" height="42" 
      rx="5" ry="5" fill="#ffe6cc" stroke="#d79b00" stroke-width="2" />
    <text x="287" y="320" 
      class="node-label" text-anchor="middle">Configuration</text>

    <rect id="node-7" x="224" y="364" width="125.99999999999999" height="42" 
      rx="5" ry="5" fill="#ffe6cc" stroke="#d79b00" stroke-width="2" />
    <text x="287" y="390" 
      class="node-label" text-anchor="middle">Application Migration</text>

    <rect id="node-8" x="56" y="125.99999999999999" width="84" height="42" 
      rx="5" ry="5" fill="#fff2cc" stroke="#d6b656" stroke-width="2" />
    <text x="98" y="152" 
      class="node-label" text-anchor="middle">Pre-Migration Validation</text>

    <rect id="node-9" x="420" y="125.99999999999999" width="84" height="42" 
      rx="5" ry="5" fill="#fff2cc" stroke="#d6b656" stroke-width="2" />
    <text x="462" y="152" 
      class="node-label" text-anchor="middle">Post-Migration Validation</text>

    <line x1="98" y1="147" x2="98" y2="217" 
      stroke="#82b366" stroke-width="2" marker-end="url(#arrowhead)" />

    <line x1="98" y1="217" x2="287" y2="175" 
      stroke="#82b366" stroke-width="2" marker-end="url(#arrowhead)" />

    <line x1="287" y1="175" x2="287" y2="245" 
      stroke="#82b366" stroke-width="2" marker-end="url(#arrowhead)" />

    <line x1="287" y1="245" x2="287" y2="315" 
      stroke="#82b366" stroke-width="2" marker-end="url(#arrowhead)" />

    <line x1="287" y1="315" x2="287" y2="385" 
      stroke="#82b366" stroke-width="2" marker-end="url(#arrowhead)" />

    <line x1="287" y1="385" x2="462" y2="217" 
      stroke="#82b366" stroke-width="2" marker-end="url(#arrowhead)" />

    <line x1="462" y1="217" x2="462" y2="147" 
      stroke="#82b366" stroke-width="2" marker-end="url(#arrowhead)" />
  </g>
  
  <!-- Footer -->
  <text x="550" y="830" class="footer" text-anchor="middle">
    Generated: 2025-05-07T17:06:47.169Z
  </text>
</svg>